<svg width="61" height="23" viewBox="0 0 61 23" fill="none" xmlns="http://www.w3.org/2000/svg">
<path d="M-6.04162e-06 4.76841H4.17234V12.3978C4.17234 13.0336 4.51407 13.3515 5.19754 13.3515C5.83333 13.3515 6.22275 13.0416 6.3658 12.4217L8.05858 4.76841H12.2309L9.05994 18.5014C8.74205 19.8365 8.15395 20.8458 7.29563 21.5293C6.43732 22.2287 5.3247 22.5784 3.95776 22.5784H-6.04162e-06L0.882147 18.6444H3.93392C4.5697 18.6444 4.95912 18.3345 5.10217 17.7146L6.07969 13.7091H5.96049L4.69686 15.8788C4.15644 16.8165 3.32992 17.2854 2.2173 17.2854C1.50204 17.2854 0.953672 17.0947 0.572201 16.7132C0.19073 16.3318 -6.04162e-06 15.7834 -6.04162e-06 15.0681V4.76841ZM16.7834 17.2854C15.6072 17.2854 14.6774 16.896 13.9939 16.1172C13.3105 15.3383 12.9687 14.1701 12.9687 12.6124V4.76841H17.1411V12.8747C17.1411 13.9237 17.6735 14.4482 18.7385 14.4482C19.7875 14.4482 20.312 13.9237 20.312 12.8747V4.76841H24.4844V17.1662H20.312V14.8059H20.1928C19.9703 15.5052 19.5888 16.0933 19.0484 16.5702C18.508 17.047 17.753 17.2854 16.7834 17.2854ZM31.862 8.44007C31.862 7.80428 31.5361 7.48639 30.8845 7.48639C30.2169 7.48639 29.8831 7.80428 29.8831 8.44007V17.1662H25.7108V4.76841H29.8831V7.12876H30.0023C30.1772 6.4294 30.503 5.8413 30.9798 5.36446C31.4726 4.88762 32.1958 4.6492 33.1495 4.6492C33.9919 4.6492 34.6833 4.85583 35.2237 5.26909C35.7641 5.68235 36.0343 6.30224 36.0343 7.12876H36.1535C36.3284 6.4294 36.6542 5.8413 37.1311 5.36446C37.6079 4.88762 38.2914 4.6492 39.1815 4.6492C40.1193 4.6492 40.8504 4.9512 41.3749 5.55519C41.9153 6.14329 42.1856 7.07313 42.1856 8.3447V17.1662H38.0132V8.44007C38.0132 7.80428 37.6874 7.48639 37.0357 7.48639C36.3681 7.48639 36.0343 7.80428 36.0343 8.44007V17.1662H31.862V8.44007ZM43.4525 1.53396e-05H47.6249V17.1662H43.4525V1.53396e-05ZM48.6152 4.76841H52.7876V12.3978C52.7876 13.0336 53.1293 13.3515 53.8128 13.3515C54.4486 13.3515 54.838 13.0416 54.9811 12.4217L56.6738 4.76841H60.8462L57.6752 18.5014C57.3573 19.8365 56.7692 20.8458 55.9109 21.5293C55.0526 22.2287 53.94 22.5784 52.573 22.5784H48.6152L49.4974 18.6444H52.5492C53.185 18.6444 53.5744 18.3345 53.7174 17.7146L54.6949 13.7091H54.5757L53.3121 15.8788C52.7717 16.8165 51.9452 17.2854 50.8326 17.2854C50.1173 17.2854 49.5689 17.0947 49.1875 16.7132C48.806 16.3318 48.6152 15.7834 48.6152 15.0681V4.76841Z" fill="#FF141B"/>
</svg>
