<svg width="54" height="54" viewBox="0 0 54 54" fill="none" xmlns="http://www.w3.org/2000/svg">
<g filter="url(#filter0_dddi_37_204)">
<g clip-path="url(#clip0_37_204)">
<path d="M3 14.8C3 10.3196 3 8.07937 3.87195 6.36808C4.63893 4.86278 5.86278 3.63893 7.36808 2.87195C9.07937 2 11.3196 2 15.8 2H38.2C42.6804 2 44.9206 2 46.6319 2.87195C48.1372 3.63893 49.3611 4.86278 50.1281 6.36808C51 8.07937 51 10.3196 51 14.8V37.2C51 41.6804 51 43.9206 50.1281 45.6319C49.3611 47.1372 48.1372 48.3611 46.6319 49.1281C44.9206 50 42.6804 50 38.2 50H15.8C11.3196 50 9.07937 50 7.36808 49.1281C5.86278 48.3611 4.63893 47.1372 3.87195 45.6319C3 43.9206 3 41.6804 3 37.2V14.8Z" fill="white"/>
<g opacity="0.14" clip-path="url(#clip1_37_204)">
<path fill-rule="evenodd" clip-rule="evenodd" d="M26.9417 2H27.0582V4.94185C29.8394 4.94938 32.4937 5.49604 34.9223 6.48282V2H35.0388V6.53057C37.1008 7.38289 38.9979 8.55323 40.669 9.98047H42.9029V2H43.0194V9.98047H51V10.097H43.0194V12.3309C44.4467 14.002 45.617 15.899 46.4694 17.9609H51V18.0774H46.5171C47.5039 20.506 48.0506 23.1603 48.0582 25.9414H51V26.0579H48.0582C48.0507 28.839 47.5041 31.4933 46.5174 33.9219H51V34.0384H46.4697C45.6173 36.1006 44.4468 37.9979 43.0194 39.6691V41.9023H51V42.0188H43.0194V50H42.9029V42.0188H40.6698C38.9986 43.4464 37.1012 44.617 35.0388 45.4695V50H34.9223V45.5172C32.4937 46.504 29.8394 47.0507 27.0582 47.0582V50H26.9417V47.0582C24.1606 47.0507 21.5063 46.504 19.0777 45.5172V50H18.9612V45.4695C16.8988 44.617 15.0015 43.4464 13.3302 42.0188H11.0971V50H10.9806V42.0188H3V41.9023H10.9806V39.6691C9.55316 37.9979 8.38271 36.1006 7.53035 34.0384H3V33.9219H7.48261C6.4959 31.4933 5.94931 28.839 5.94183 26.0579H3V25.9414H5.94183C5.94941 23.1603 6.4961 20.506 7.48291 18.0774H3V17.9609H7.53065C8.38298 15.899 9.55333 14.002 10.9806 12.3309V10.097H3V9.98047H10.9806V2H11.0971V9.98047H13.331C15.0021 8.55323 16.8992 7.38289 18.9612 6.53057V2H19.0777V6.48282C21.5063 5.49604 24.1606 4.94938 26.9417 4.94185V2ZM26.9417 5.05836C24.1594 5.06594 21.5046 5.61612 19.0777 6.60867V9.98047H26.9417V5.05836ZM18.9612 6.65673C16.9706 7.48493 15.1353 8.61145 13.5111 9.98047H18.9612V6.65673ZM13.1958 10.097H11.0971V12.1957C11.7466 11.448 12.4481 10.7465 13.1958 10.097ZM11.0971 12.374C11.7968 11.5581 12.5582 10.7967 13.3741 10.097H18.9612V17.9609H11.0971V12.374ZM10.9806 12.511C9.61155 14.1352 8.48503 15.9704 7.65681 17.9609H10.9806V12.511ZM7.60875 18.0774C6.61618 20.5043 6.06596 23.1591 6.05833 25.9414H10.9806V18.0774H7.60875ZM6.05833 26.0579C6.06586 28.8402 6.61598 31.495 7.60845 33.9219H10.9806V26.0579H6.05833ZM7.65651 34.0384C8.48475 36.0292 9.61138 37.8647 10.9806 39.4891V34.0384H7.65651ZM11.0971 39.8044V41.9023H13.1949C12.4476 41.253 11.7464 40.5518 11.0971 39.8044ZM13.3732 41.9023C12.5577 41.2028 11.7965 40.4417 11.0971 39.6261V34.0384H18.9612V41.9023H13.3732ZM13.5102 42.0188C15.1346 43.3882 16.9702 44.515 18.9612 45.3433V42.0188H13.5102ZM19.0777 45.3914C21.5046 46.3839 24.1594 46.9341 26.9417 46.9417V42.0188H19.0777V45.3914ZM27.0582 46.9417C29.8406 46.9341 32.4954 46.3839 34.9223 45.3914V42.0188H27.0582V46.9417ZM35.0388 45.3433C37.0298 44.515 38.8654 43.3882 40.4898 42.0188H35.0388V45.3433ZM40.8051 41.9023H42.9029V39.8044C42.2536 40.5518 41.5524 41.253 40.8051 41.9023ZM42.9029 39.6261C42.2035 40.4417 41.4423 41.2028 40.6268 41.9023H35.0388V34.0384H42.9029V39.6261ZM43.0194 39.4891C44.3886 37.8647 45.5153 36.0292 46.3435 34.0384H43.0194V39.4891ZM46.3916 33.9219C47.384 31.495 47.9341 28.8402 47.9417 26.0579H43.0194V33.9219H46.3916ZM47.9417 25.9414C47.934 23.1591 47.3838 20.5043 46.3913 18.0774H43.0194V25.9414H47.9417ZM46.3432 17.9609C45.515 15.9704 44.3885 14.1352 43.0194 12.511V17.9609H46.3432ZM42.9029 12.1957V10.097H40.8042C41.5519 10.7465 42.2534 11.448 42.9029 12.1957ZM40.6259 10.097C41.4418 10.7967 42.2032 11.5581 42.9029 12.374V17.9609H35.0388V10.097H40.6259ZM40.4889 9.98047C38.8647 8.61145 37.0294 7.48493 35.0388 6.65673V9.98047H40.4889ZM34.9223 6.60867C32.4954 5.61611 29.8406 5.06593 27.0582 5.05836V9.98047H34.9223V6.60867ZM19.0777 10.097H26.9417V17.9609H19.0777V10.097ZM34.9223 10.097H27.0582V17.9609H34.9223V10.097ZM18.9612 33.9219H11.0971V26.0579H18.9612V33.9219ZM19.0777 34.0384V41.9023H26.9417V34.0384H19.0777ZM26.9417 33.9219H19.0777V26.0579H26.9417V33.9219ZM27.0582 34.0384V41.9023H34.9223V34.0384H27.0582ZM34.9223 33.9219H27.0582V26.0579H34.9223V33.9219ZM42.9029 33.9219H35.0388V26.0579H42.9029V33.9219ZM19.0777 18.0774H26.9417V25.9414H19.0777V18.0774ZM11.0971 18.0774L18.9612 18.0774V25.9414H11.0971V18.0774ZM34.9223 18.0774H27.0582V25.9414H34.9223V18.0774ZM35.0388 25.9414V18.0774L42.9029 18.0774V25.9414H35.0388Z" fill="#0A0D12"/>
</g>
<g filter="url(#filter1_di_37_204)">
<path d="M27 8C31.3761 8 35.5729 9.73839 38.6673 12.8327C41.7616 15.9271 43.5 20.1239 43.5 24.5C43.5 30.1357 40.4273 34.7483 37.1897 38.0575C35.5721 39.6929 33.807 41.1757 31.917 42.4868L31.136 43.0185L30.7693 43.2623L30.0782 43.7023L29.4622 44.0782L28.6995 44.5218C28.1818 44.8173 27.5961 44.9727 27 44.9727C26.4039 44.9727 25.8182 44.8173 25.3005 44.5218L24.5378 44.0782L23.5845 43.4915L23.2325 43.2623L22.4808 42.7618C20.4419 41.3823 18.5427 39.8067 16.8103 38.0575C13.5727 34.7465 10.5 30.1357 10.5 24.5C10.5 20.1239 12.2384 15.9271 15.3327 12.8327C18.4271 9.73839 22.6239 8 27 8Z" fill="#FD6632"/>
<g filter="url(#filter2_if_37_204)">
<path d="M21.871 9.7193L25.1268 19.4867L22.5307 22.3086C20.8463 24.1395 20.3523 26.7703 21.2579 29.0875L23.08 33.7499C24.6551 37.7805 30.3984 37.6641 31.8091 33.5731L33.3953 28.9732C34.1754 26.7109 33.6518 24.2029 32.0315 22.4418L29.3129 19.4867L32.1036 9.7193H21.871Z" fill="white"/>
<path d="M32.3316 9.54742L32.2691 9.76617L29.5034 19.441L32.1577 22.3257C33.8206 24.1333 34.3586 26.7069 33.5581 29.0289L31.9712 33.6295C30.5081 37.8713 24.5528 37.9915 22.9195 33.8121L21.0982 29.15C20.1687 26.7716 20.6749 24.0712 22.4038 22.192L24.9312 19.4449L21.7076 9.77399L21.6324 9.54742H32.3316Z" stroke="url(#paint0_linear_37_204)" stroke-width="0.343834"/>
</g>
</g>
</g>
<path d="M15.7998 2.09961H38.2002C40.442 2.09961 42.1173 2.1004 43.4463 2.20898C44.7741 2.31747 45.7477 2.53335 46.5869 2.96094C48.0732 3.7183 49.2817 4.92681 50.0391 6.41309C50.4666 7.25227 50.6825 8.22592 50.791 9.55371C50.8996 10.8827 50.9004 12.558 50.9004 14.7998V37.2002C50.9004 39.442 50.8996 41.1173 50.791 42.4463C50.6825 43.7741 50.4666 44.7477 50.0391 45.5869C49.2817 47.0732 48.0732 48.2817 46.5869 49.0391C45.7477 49.4666 44.7741 49.6825 43.4463 49.791C42.1173 49.8996 40.442 49.9004 38.2002 49.9004H15.7998C13.558 49.9004 11.8827 49.8996 10.5537 49.791C9.22592 49.6825 8.25227 49.4666 7.41309 49.0391C5.92681 48.2817 4.7183 47.0732 3.96094 45.5869C3.53335 44.7477 3.31747 43.7741 3.20898 42.4463C3.1004 41.1173 3.09961 39.442 3.09961 37.2002V14.7998C3.09961 12.558 3.1004 10.8827 3.20898 9.55371C3.31747 8.22592 3.53335 7.25227 3.96094 6.41309C4.7183 4.92681 5.92681 3.7183 7.41309 2.96094C8.25227 2.53335 9.22592 2.31747 10.5537 2.20898C11.8827 2.1004 13.558 2.09961 15.7998 2.09961Z" stroke="#0A0D12" stroke-opacity="0.12" stroke-width="0.2"/>
</g>
<defs>
<filter id="filter0_dddi_37_204" x="0" y="0" width="54" height="54" filterUnits="userSpaceOnUse" color-interpolation-filters="sRGB">
<feFlood flood-opacity="0" result="BackgroundImageFix"/>
<feColorMatrix in="SourceAlpha" type="matrix" values="0 0 0 0 0 0 0 0 0 0 0 0 0 0 0 0 0 0 127 0" result="hardAlpha"/>
<feOffset dy="1"/>
<feGaussianBlur stdDeviation="1"/>
<feColorMatrix type="matrix" values="0 0 0 0 0.0392157 0 0 0 0 0.0509804 0 0 0 0 0.0705882 0 0 0 0.06 0"/>
<feBlend mode="normal" in2="BackgroundImageFix" result="effect1_dropShadow_37_204"/>
<feColorMatrix in="SourceAlpha" type="matrix" values="0 0 0 0 0 0 0 0 0 0 0 0 0 0 0 0 0 0 127 0" result="hardAlpha"/>
<feOffset dy="1"/>
<feGaussianBlur stdDeviation="1.5"/>
<feColorMatrix type="matrix" values="0 0 0 0 0.0392157 0 0 0 0 0.0509804 0 0 0 0 0.0705882 0 0 0 0.1 0"/>
<feBlend mode="normal" in2="effect1_dropShadow_37_204" result="effect2_dropShadow_37_204"/>
<feColorMatrix in="SourceAlpha" type="matrix" values="0 0 0 0 0 0 0 0 0 0 0 0 0 0 0 0 0 0 127 0" result="hardAlpha"/>
<feMorphology radius="0.5" operator="erode" in="SourceAlpha" result="effect3_dropShadow_37_204"/>
<feOffset dy="1"/>
<feGaussianBlur stdDeviation="0.5"/>
<feComposite in2="hardAlpha" operator="out"/>
<feColorMatrix type="matrix" values="0 0 0 0 0.0392157 0 0 0 0 0.0509804 0 0 0 0 0.0705882 0 0 0 0.13 0"/>
<feBlend mode="normal" in2="effect2_dropShadow_37_204" result="effect3_dropShadow_37_204"/>
<feBlend mode="normal" in="SourceGraphic" in2="effect3_dropShadow_37_204" result="shape"/>
<feColorMatrix in="SourceAlpha" type="matrix" values="0 0 0 0 0 0 0 0 0 0 0 0 0 0 0 0 0 0 127 0" result="hardAlpha"/>
<feOffset dy="-0.5"/>
<feGaussianBlur stdDeviation="0.25"/>
<feComposite in2="hardAlpha" operator="arithmetic" k2="-1" k3="1"/>
<feColorMatrix type="matrix" values="0 0 0 0 0.0392157 0 0 0 0 0.0509804 0 0 0 0 0.0705882 0 0 0 0.1 0"/>
<feBlend mode="normal" in2="shape" result="effect4_innerShadow_37_204"/>
</filter>
<filter id="filter1_di_37_204" x="6.69508" y="4.66774" width="40.6098" height="44.5826" filterUnits="userSpaceOnUse" color-interpolation-filters="sRGB">
<feFlood flood-opacity="0" result="BackgroundImageFix"/>
<feColorMatrix in="SourceAlpha" type="matrix" values="0 0 0 0 0 0 0 0 0 0 0 0 0 0 0 0 0 0 127 0" result="hardAlpha"/>
<feOffset dy="0.472661"/>
<feGaussianBlur stdDeviation="1.90246"/>
<feComposite in2="hardAlpha" operator="out"/>
<feColorMatrix type="matrix" values="0 0 0 0 0.992157 0 0 0 0 0.4 0 0 0 0 0.196078 0 0 0 0.66 0"/>
<feBlend mode="normal" in2="BackgroundImageFix" result="effect1_dropShadow_37_204"/>
<feBlend mode="normal" in="SourceGraphic" in2="effect1_dropShadow_37_204" result="shape"/>
<feColorMatrix in="SourceAlpha" type="matrix" values="0 0 0 0 0 0 0 0 0 0 0 0 0 0 0 0 0 0 127 0" result="hardAlpha"/>
<feOffset dy="0.472661"/>
<feGaussianBlur stdDeviation="1.11666"/>
<feComposite in2="hardAlpha" operator="arithmetic" k2="-1" k3="1"/>
<feColorMatrix type="matrix" values="0 0 0 0 1 0 0 0 0 1 0 0 0 0 1 0 0 0 0.2 0"/>
<feBlend mode="normal" in2="shape" result="effect2_innerShadow_37_204"/>
</filter>
<filter id="filter2_if_37_204" x="19.5577" y="8.4659" width="15.4469" height="29.9504" filterUnits="userSpaceOnUse" color-interpolation-filters="sRGB">
<feFlood flood-opacity="0" result="BackgroundImageFix"/>
<feBlend mode="normal" in="SourceGraphic" in2="BackgroundImageFix" result="shape"/>
<feColorMatrix in="SourceAlpha" type="matrix" values="0 0 0 0 0 0 0 0 0 0 0 0 0 0 0 0 0 0 127 0" result="hardAlpha"/>
<feOffset dy="1.36434"/>
<feGaussianBlur stdDeviation="1.23207"/>
<feComposite in2="hardAlpha" operator="arithmetic" k2="-1" k3="1"/>
<feColorMatrix type="matrix" values="0 0 0 0 0.992157 0 0 0 0 0.4 0 0 0 0 0.196078 0 0 0 0.98 0"/>
<feBlend mode="normal" in2="shape" result="effect1_innerShadow_37_204"/>
<feGaussianBlur stdDeviation="0.45478" result="effect2_foregroundBlur_37_204"/>
</filter>
<linearGradient id="paint0_linear_37_204" x1="34.551" y1="30.2746" x2="25.5254" y2="13.5127" gradientUnits="userSpaceOnUse">
<stop stop-color="white"/>
<stop offset="1" stop-color="#FD6632"/>
</linearGradient>
<clipPath id="clip0_37_204">
<path d="M3 14.8C3 10.3196 3 8.07937 3.87195 6.36808C4.63893 4.86278 5.86278 3.63893 7.36808 2.87195C9.07937 2 11.3196 2 15.8 2H38.2C42.6804 2 44.9206 2 46.6319 2.87195C48.1372 3.63893 49.3611 4.86278 50.1281 6.36808C51 8.07937 51 10.3196 51 14.8V37.2C51 41.6804 51 43.9206 50.1281 45.6319C49.3611 47.1372 48.1372 48.3611 46.6319 49.1281C44.9206 50 42.6804 50 38.2 50H15.8C11.3196 50 9.07937 50 7.36808 49.1281C5.86278 48.3611 4.63893 47.1372 3.87195 45.6319C3 43.9206 3 41.6804 3 37.2V14.8Z" fill="white"/>
</clipPath>
<clipPath id="clip1_37_204">
<rect width="48" height="48" fill="white" transform="translate(3 2)"/>
</clipPath>
</defs>
</svg>
